<svg xmlns="http://www.w3.org/2000/svg" xmlns:xlink="http://www.w3.org/1999/xlink" version="1.1" x="0px" y="0px" viewBox="0 0 100 125" enable-background="new 0 0 100 100" xml:space="preserve"><g><path fill="#000000" d="M89.7,73.1c-0.2,0-0.4,0-0.6,0L88.3,73l-0.2,0.8c-0.4,1.8-1.9,3.1-3.7,3.4l-0.7,0.1l0,0.8   c0,2.6-2.1,4.6-4.6,4.6c-1.4,0-2.7-0.6-3.6-1.7l-0.6-0.8L74.1,81c-1.1,1.1-2.6,1.7-4.2,1.4l-0.8-0.1L69,83   c-0.6,1.9-2.4,3.2-4.4,3.2c-3.8,0-4.3-1.8-4.5-2.3l-0.6-2.1l-1,2c-0.6,1.2-1.7,1.6-4.1,1.6c-0.5,0-1-0.1-1.5-0.3l-0.6-0.2l-0.4,0.5   c-0.9,1.2-2.3,1.9-3.8,1.9c-2.2,0-4-1.5-4.5-3.6l-0.4-1.9L42,83.4c-0.9,1.2-2.3,1.9-3.8,1.9c-1.9,0-3.6-1.2-4.3-3l-0.7-1.7   l-0.9,1.6c-0.9,1.5-2.9,3.1-4.5,3.1c-2.6,0-4.6-2.1-4.6-4.6c0-0.1,0-0.1,0-0.2l0.1-1.8l-1.5,1c-0.8,0.6-1.7,0.8-2.7,0.8   c-2.4,0-4-2.7-4.1-5.1l-0.1-1.6l-1.3,0.9c-0.8,0.6-1.7,0.8-2.7,0.8c-2.6,0-4.6-2.1-4.6-4.6c0-1.1,0.4-2.2,1.1-3   c0.2-0.2,0.4-0.3,0.6-0.5c2.3,2.7,5.8,5.1,10.5,7.2c2.7,1.2,5.8,2.2,9,3.1c0.2,0.7,0.3,1.4,0.5,2.1c0.1,0.4,0.4,0.7,0.8,0.7   c0,0,0,0,0.1,0c0.4,0,0.7-0.2,0.8-0.6c0,0,0.2-0.6,0.7-1.5c6.1,1.3,12.8,2,19.8,2c12,0,23.2-2.1,31.7-5.8c5.5-2.4,9.4-5.4,11.6-8.6   c0.4,0.7,0.7,1.5,0.7,2.4C94.3,71.1,92.2,73.1,89.7,73.1z"/><path fill="#000000" d="M93.4,61c0-0.2,0-0.3,0-0.5h0c0-1.3-0.1-2.5-0.3-3.7c-4,6.9-18.3,10.7-42.8,11.1   c-8.6,0.2-13.8,3.5-16.6,6.2c-1,0.9-1.7,1.9-2.3,2.7c5.8,1.2,12.2,1.9,18.8,1.9c11.7,0,22.7-2,31-5.6c6.2-2.7,10.2-6.1,11.7-9.7   C93.3,62.6,93.4,61.8,93.4,61z M39,73.3c0,0.4-0.4,0.7-0.9,0.7c-0.5,0-0.9-0.3-0.9-0.7c0-0.4,0.4-0.7,0.9-0.7   C38.6,72.5,39,72.9,39,73.3z M46,73.6c0,0.4-0.4,0.7-0.9,0.7c-0.5,0-0.9-0.3-0.9-0.7c0-0.4,0.4-0.7,0.9-0.7   C45.6,72.8,46,73.2,46,73.6z M49.4,76.1c0.5,0,0.9,0.3,0.9,0.7c0,0.4-0.4,0.7-0.9,0.7c-0.5,0-0.9-0.3-0.9-0.7   C48.5,76.4,48.9,76.1,49.4,76.1z M51.5,71.3c0,0.4-0.4,0.7-0.9,0.7c-0.5,0-0.9-0.3-0.9-0.7c0-0.4,0.4-0.7,0.9-0.7   C51.1,70.6,51.5,70.9,51.5,71.3z M57.1,74.8c0,0.4-0.4,0.7-0.9,0.7c-0.5,0-0.9-0.3-0.9-0.7c0-0.4,0.4-0.7,0.9-0.7   C56.7,74,57.1,74.4,57.1,74.8z M61.2,70c0,0.4-0.4,0.7-0.9,0.7c-0.5,0-0.9-0.3-0.9-0.7c0-0.4,0.4-0.7,0.9-0.7   C60.8,69.3,61.2,69.6,61.2,70z M69.1,74.8c0,0.4-0.4,0.7-0.9,0.7c-0.5,0-0.9-0.3-0.9-0.7c0-0.4,0.4-0.7,0.9-0.7   C68.7,74,69.1,74.4,69.1,74.8z M72.6,71.5c0,0.4-0.4,0.7-0.9,0.7c-0.5,0-0.9-0.3-0.9-0.7c0-0.4,0.4-0.7,0.9-0.7   C72.2,70.7,72.6,71.1,72.6,71.5z M79.9,70.9c0,0.4-0.4,0.7-0.9,0.7c-0.5,0-0.9-0.3-0.9-0.7c0-0.4,0.4-0.7,0.9-0.7   C79.5,70.1,79.9,70.5,79.9,70.9z M81.7,67c0,0.4-0.4,0.7-0.9,0.7c-0.5,0-0.9-0.3-0.9-0.7c0-0.4,0.4-0.7,0.9-0.7   C81.3,66.3,81.7,66.6,81.7,67z M87.2,65.5c0,0.4-0.4,0.8-0.9,0.8c-0.5,0-0.9-0.3-0.9-0.8c0-0.4,0.4-0.7,0.9-0.7   C86.8,64.8,87.2,65.1,87.2,65.5z"/><path fill="#000000" d="M93.6,40.7c0-0.2,0-0.3,0-0.5h0C93.6,20.8,74.2,5,50.3,5C26.4,5,7,20.8,7,40.2h0c0,0.2,0,0.3,0,0.5   c0,1.7,0.5,3.3,1.4,4.9l-0.1,0c2,2.9,5.7,5.7,10.8,8c8.3,3.6,19.3,5.7,31.1,5.7c11.8,0,22.8-2,31.1-5.7c4.2-1.9,7.4-4,9.6-6.3   C92.7,45.1,93.6,42.9,93.6,40.7z M37.4,15.6c-0.1,2.6-0.6,3.3-1.4,4.1c-0.8,0.8-2.2,0.9-3,0.2c-0.8-0.8-0.6-2.2,0.2-3   C34,16.1,34.7,15.6,37.4,15.6z M42.1,26.2c-0.3,1-1.5,1.9-2.5,1.5c-1-0.3-1.5-1.7-1.2-2.7c0.3-1.1,0.7-1.8,3-3.1   C42.6,24.3,42.4,25.2,42.1,26.2z M52.5,17.8c0,1.1-0.9,2.2-2,2.2c-1.1,0-2-1.1-2-2.2c0-1.1,0.1-2,2-3.9   C52.4,15.9,52.5,16.7,52.5,17.8z M61.3,28.3c-1,0.4-2.2-0.4-2.6-1.4c-0.4-1.1-0.6-1.9,0.4-4.3c2.4,1.1,2.8,1.8,3.2,2.9   C62.7,26.5,62.3,27.9,61.3,28.3z M67.4,19.2c-0.7,0.8-2.1,0.8-3,0.1c-0.9-0.7-1.4-1.4-1.7-4c2.6-0.2,3.3,0.2,4.2,1   C67.8,17,68.1,18.4,67.4,19.2z"/><path fill="#000000" d="M13.4,76.9c0.6,2.9,2.7,5.4,5.7,5.4c0.8,0,1.6-0.2,2.4-0.5c0.6,3,3.2,5.2,6.3,5.2c1.9,0,3.8-1.3,5.1-2.7   c1.2,1.7,3.1,2.8,5.3,2.8c1.5,0,3-0.6,4.1-1.5c1.1,2.1,3.2,3.5,5.7,3.5c1.8,0,3.6-0.8,4.8-2.2c0.5,0.1,1,0.2,1.5,0.2   c1.7,0,3.5-0.2,4.7-1.3C60,87,61.6,88,64.6,88c2.6,0,4.8-1.5,5.8-3.8c1.6,0.1,3.1-0.4,4.3-1.4c1.2,1.1,2.7,1.7,4.3,1.7   c3.3,0,6.1-2.5,6.4-5.8c1.9-0.6,3.4-2,4.1-3.8c0,0,0.1,0,0.1,0c0.8,0,1.5-0.2,2.2-0.4c0,0.5,0.1,1.1,0.1,1.7h0c0,0.2,0,0.3,0,0.5   C92,86.7,73.3,95,50.3,95C27.6,95,9.1,86.9,8.7,77c0.7,0.3,1.5,0.4,2.3,0.4C11.8,77.4,12.6,77.3,13.4,76.9z"/><path fill="#000000" d="M7.2,60.5L7.2,60.5c0,0.2,0,0.3,0,0.5c0,0.8,0.1,1.6,0.4,2.5c1.5,3.6,5.6,6.9,11.7,9.6   c2.4,1,4.9,1.9,7.7,2.7c-3-9.3-9.2-12.8-13.9-15.4c-2.3-1.3-4.4-2.5-5.6-4.1C7.3,57.7,7.2,59.1,7.2,60.5z M17,69.3   c0-0.4,0.4-0.7,0.9-0.7c0.5,0,0.9,0.3,0.9,0.7c0,0.4-0.4,0.7-0.9,0.7C17.4,70,17,69.7,17,69.3z M15.5,65.1c0-0.4,0.4-0.7,0.9-0.7   c0.5,0,0.9,0.3,0.9,0.7c0,0.4-0.4,0.7-0.9,0.7C15.9,65.8,15.5,65.5,15.5,65.1z M10.2,63.2c0-0.4,0.4-0.7,0.9-0.7   c0.5,0,0.9,0.3,0.9,0.7c0,0.4-0.4,0.7-0.9,0.7C10.6,63.9,10.2,63.6,10.2,63.2z"/><path fill="#000000" d="M29,76.3c-3.1-10.7-9.9-14.6-15-17.4c-4-2.2-6.1-3.5-5.9-6.3c0-0.1,0-0.2,0-0.3c0-0.1,0-0.1,0-0.2   c0-0.1,0-0.1,0-0.2c0-1.1,0.1-2.3,0.2-3.4c2.3,2.5,5.7,4.8,10.1,6.7C27,58.9,38.3,61,50.3,61c12,0,23.3-2.1,31.8-5.8   c4.4-1.9,7.8-4.2,10.1-6.8c0.1,1.1,0.2,2.3,0.2,3.4c0,0.1,0,0.1,0,0.2c0,0.1,0,0.3,0,0.4c0,8.4-14.6,13.2-42.2,13.7   c-12.2,0.2-18.1,6.4-20.6,10.3C29.5,76.4,29.2,76.4,29,76.3z"/></g><text x="0" y="115" fill="#000000" font-size="5px" font-weight="bold" font-family="'Helvetica Neue', Helvetica, Arial-Unicode, Arial, Sans-serif">Created by Danielle Garbouchian</text><text x="0" y="120" fill="#000000" font-size="5px" font-weight="bold" font-family="'Helvetica Neue', Helvetica, Arial-Unicode, Arial, Sans-serif">from the Noun Project</text></svg>